<svg width="80" height="75" viewBox="0 0 80 75" fill="none" xmlns="http://www.w3.org/2000/svg">
<path d="M31.2187 51.9371L26.7454 47.4638L22.2722 42.9905M31.2187 51.9371L35.3836 56.102C35.5803 56.2986 35.6861 56.5682 35.6758 56.8461L35.5386 60.5508C35.519 61.081 35.0887 61.5036 34.5582 61.5136L30.9376 61.5819C30.6659 61.5871 30.4038 61.4814 30.2116 61.2892L25.1445 56.222M31.2187 51.9371L22.2722 42.9905M31.2187 51.9371L39 44.1558M22.2722 42.9905L18.1155 38.8338C17.9141 38.6324 17.6363 38.5265 17.3519 38.5426L15.3033 38.6585L13.7154 38.7484C13.2007 38.7775 12.7925 39.1932 12.7727 39.7084L12.7135 41.2483L12.6361 43.2603C12.6254 43.5386 12.7313 43.8088 12.9282 44.0058L17.9872 49.0648M22.2722 42.9905L30.5124 34.7503M17.9872 49.0648L8.42933 58.6227C8.03881 59.0132 8.03881 59.6463 8.42933 60.0369L11.3008 62.9084L14.1724 65.7799C14.5629 66.1704 15.1961 66.1704 15.5866 65.7799L25.1445 56.222M17.9872 49.0648L25.1445 56.222M39.7627 25.5L52.9924 12.2703C53.1621 12.1006 53.3872 11.9976 53.6265 11.9801L61.7535 11.3854C62.3621 11.3409 62.8684 11.8471 62.8238 12.4557L62.2292 20.5827C62.2117 20.8221 62.1086 21.0471 61.9389 21.2168L49 34.1558" stroke="white" stroke-width="4"/>
<path d="M56.9307 43.2117L26.2105 12.4915C26.0408 12.3218 25.8157 12.2188 25.5764 12.2012L17.4494 11.6066C16.8408 11.5621 16.3345 12.0683 16.3791 12.6769L16.9737 20.8039C16.9912 21.0432 17.0942 21.2683 17.2639 21.438L47.9842 52.1583M56.9307 43.2117L52.4574 47.685L47.9842 52.1583M56.9307 43.2117L61.0956 39.0468C61.2923 38.8502 61.5619 38.7443 61.8398 38.7546L65.5445 38.8918C66.0747 38.9114 66.4973 39.3418 66.5073 39.8723L66.5756 43.4928C66.5807 43.7645 66.475 44.0266 66.2829 44.2188L61.2157 49.286M56.9307 43.2117L47.9842 52.1583M47.9842 52.1583L43.8275 56.3149C43.6261 56.5164 43.5201 56.7941 43.5362 57.0786L43.6522 59.1272L43.7421 60.715C43.7712 61.2297 44.1869 61.6379 44.702 61.6577L46.242 61.717L48.2539 61.7943C48.5323 61.8051 48.8025 61.6992 48.9994 61.5022L54.0584 56.4432M54.0584 56.4432L63.6163 66.0011C64.0068 66.3916 64.64 66.3916 65.0305 66.0011L67.902 63.1296L70.7735 60.258C71.1641 59.8675 71.1641 59.2344 70.7735 58.8438L61.2157 49.286M54.0584 56.4432L61.2157 49.286" stroke="white" stroke-width="4"/>
</svg>
