<svg width="57" height="66" viewBox="0 0 57 66" fill="none" xmlns="http://www.w3.org/2000/svg">
<path d="M7.87535 58.3672C-5.02639 48.2138 1.28993 31.6992 18.0057 18.9854V15.5744C16.5709 11.6829 14.686 6.83762 16.0581 3.58211C16.7833 1.86126 19.0745 1.83924 20.4816 3.06699C22.0048 4.39604 22.4504 5.3413 23.4935 5.3413C25.4368 5.3413 26.9588 3.73438 28.3792 2.41729C29.2034 1.65298 30.4159 1.24496 31.3044 1.93353C32.2987 2.70416 32.8985 3.92594 34.4692 4.10093C37.2448 4.36233 37.9374 2.12912 39.8424 1.2952C40.5963 0.965189 41.4896 1.12669 42.1265 1.64778C46.7651 5.4426 37.396 15.5744 37.396 15.5744V18.9854C39.6779 19.8879 44.2967 22.5592 48.6486 27.6057C49.6654 28.7848 49.8696 30.408 49.8226 31.9643C49.7507 34.3459 50.5962 36.3776 51.9785 37.6651C53.7196 39.2868 56.0483 40.8315 55.9936 43.2103C55.879 48.2028 54.1906 54.8444 49.2169 58.3672C37.396 66.7397 19.6962 67.67 7.87535 58.3672Z" fill="white"/>
<path d="M18.0057 18.9854C1.28993 31.6992 -5.02639 48.2138 7.87535 58.3672C19.6962 67.67 37.396 66.7397 49.2169 58.3672C54.1906 54.8444 55.879 48.2028 55.9936 43.2103C56.0483 40.8315 53.7196 39.2868 51.9785 37.6651C50.5962 36.3776 49.7507 34.3459 49.8226 31.9643C49.8696 30.408 49.6654 28.7848 48.6486 27.6057C44.2967 22.5592 39.6779 19.8879 37.396 18.9854M18.0057 18.9854H37.396M18.0057 18.9854V15.5744M37.396 18.9854V15.5744M18.0057 15.5744H37.396M18.0057 15.5744C16.5709 11.6829 14.686 6.83762 16.0581 3.58211C16.7833 1.86126 19.0745 1.83924 20.4816 3.06699C22.0048 4.39604 22.4504 5.3413 23.4935 5.3413C25.4368 5.3413 26.9588 3.73438 28.3792 2.41729C29.2034 1.65298 30.4159 1.24496 31.3044 1.93353C32.2987 2.70416 32.8985 3.92594 34.4692 4.10093C37.2448 4.36233 37.9374 2.12912 39.8424 1.2952C40.5963 0.965189 41.4896 1.12669 42.1265 1.64778C46.7651 5.44259 37.396 15.5744 37.396 15.5744" stroke="#0F0105" stroke-width="2"/>
</svg>
